<?xml version="1.0" standalone="no"?>
<!DOCTYPE svg PUBLIC "-//W3C//DTD SVG 20010904//EN"
 "http://www.w3.org/TR/2001/REC-SVG-20010904/DTD/svg10.dtd">
<svg version="1.0" xmlns="http://www.w3.org/2000/svg"
 width="2480.000000pt" height="2480.000000pt" viewBox="0 0 2480.000000 2480.000000"
 preserveAspectRatio="xMidYMid meet">

<g transform="translate(0.000000,2480.000000) scale(0.100000,-0.100000)"
fill="#000000" stroke="none">
<path d="M16022 23874 c-35 -21 -109 -84 -166 -140 -94 -93 -108 -103 -158
-114 -30 -7 -88 -11 -129 -9 -64 4 -83 9 -144 44 -175 100 -384 185 -457 185
-55 0 -138 -37 -253 -112 -155 -102 -155 -102 -282 -106 -111 -4 -112 -4 -195
33 -198 89 -258 108 -326 102 -97 -7 -153 -41 -273 -163 -57 -58 -122 -116
-144 -129 -54 -31 -160 -36 -545 -25 -332 8 -335 8 -525 -47 -219 -63 -297
-100 -475 -221 -264 -181 -497 -358 -577 -440 -98 -100 -262 -464 -309 -687
-56 -265 -140 -984 -155 -1320 -25 -596 -23 -568 -68 -692 -22 -62 -64 -168
-94 -235 -30 -68 -71 -163 -92 -213 -21 -49 -51 -121 -67 -160 -67 -158 -216
-416 -307 -532 -92 -116 -264 -247 -396 -302 -148 -61 -587 -89 -800 -50 -132
24 -328 152 -490 321 -121 125 -247 284 -940 1182 -479 621 -622 822 -711 996
-45 89 -52 147 -53 432 -1 103 -5 198 -10 211 -6 14 -23 29 -42 36 -39 13
-119 14 -151 2 -29 -11 -188 -182 -454 -486 -212 -243 -228 -266 -220 -300 7
-27 -10 -9 455 -490 79 -82 186 -193 236 -245 50 -52 201 -210 335 -350 135
-140 377 -392 539 -560 162 -168 349 -361 415 -430 341 -354 622 -646 716
-744 58 -61 171 -178 251 -261 527 -544 719 -747 719 -757 0 -5 -274 -8 -610
-8 l-610 0 0 -64 0 -63 173 -6 c188 -6 263 -20 358 -68 82 -41 130 -93 156
-169 49 -141 48 -87 48 -2230 0 -1108 -3 -2042 -8 -2075 -23 -191 -104 -278
-327 -356 -53 -18 -96 -23 -230 -28 l-165 -6 -3 -67 -3 -68 1999 0 1999 0 72
208 c40 114 87 250 106 302 120 342 265 767 265 778 0 8 -22 12 -74 12 -87 0
-80 6 -163 -150 -147 -278 -360 -556 -512 -669 -146 -108 -236 -145 -436 -178
-99 -16 -180 -18 -830 -18 -663 0 -724 1 -771 18 -54 19 -111 70 -138 125 -30
60 -35 227 -36 1200 l0 962 633 0 c373 0 667 -4 717 -10 120 -15 235 -46 305
-83 68 -36 163 -125 189 -177 36 -71 71 -218 106 -437 l12 -73 69 0 69 0 0
478 0 477 82 -85 c45 -47 138 -143 207 -215 69 -71 227 -236 351 -365 124
-129 286 -297 360 -375 75 -77 190 -196 256 -265 163 -170 391 -407 554 -575
75 -77 187 -194 250 -260 122 -128 260 -271 510 -530 85 -88 254 -264 375
-390 121 -126 228 -236 238 -243 9 -7 15 -18 12 -23 -4 -5 -206 -9 -501 -9
l-494 0 0 -65 c0 -36 1 -65 3 -65 171 -17 277 -43 387 -96 77 -38 109 -61 170
-123 41 -42 82 -89 90 -106 8 -16 22 -41 30 -55 9 -14 55 -113 102 -220 47
-107 121 -273 163 -369 42 -96 80 -183 85 -195 4 -12 19 -46 33 -76 14 -30 37
-84 52 -120 15 -36 60 -139 100 -230 40 -91 175 -399 300 -685 125 -286 251
-575 281 -642 30 -68 54 -125 54 -127 0 -3 13 -33 29 -68 24 -51 470 -1071
708 -1618 29 -69 58 -134 63 -145 6 -11 41 -92 80 -180 l69 -160 73 -3 74 -3
78 193 c44 106 110 270 149 363 38 94 88 217 112 275 75 185 191 469 290 710
53 129 108 264 122 300 13 36 31 79 38 95 8 17 37 87 64 156 28 69 63 154 79
189 l27 62 200 -208 c110 -115 265 -277 345 -359 80 -83 201 -209 269 -280 69
-72 179 -186 246 -255 66 -69 174 -181 240 -250 66 -69 185 -192 265 -275 80
-82 258 -267 395 -410 138 -143 303 -314 367 -380 64 -66 129 -133 144 -150
15 -16 122 -128 238 -249 l211 -218 6 298 6 299 43 195 c35 162 43 215 44 310
1 108 -1 118 -27 170 -16 30 -50 84 -76 120 -69 93 -78 115 -106 255 -43 213
-32 369 41 623 83 288 95 412 48 512 -14 30 -37 70 -50 88 -14 18 -37 58 -52
90 -23 49 -27 70 -27 152 0 86 3 101 30 155 19 38 65 96 126 160 116 121 129
140 129 183 0 46 -19 88 -84 179 -79 113 -106 175 -106 246 0 73 18 116 78
184 113 130 113 133 -37 398 -66 116 -91 174 -91 213 0 15 11 77 25 137 31
137 32 226 4 297 -11 29 -30 76 -41 103 -13 33 -22 84 -25 151 -7 125 5 169
92 354 36 74 69 159 76 188 9 46 8 57 -10 96 -25 51 -108 153 -229 280 -176
187 -269 330 -291 451 -16 84 -14 293 5 493 15 159 15 174 0 197 -16 24 -33
36 -187 134 -129 81 -134 97 -118 404 6 117 9 262 6 323 -6 160 -22 190 -260
508 -232 309 -277 387 -277 480 0 64 17 89 90 136 58 37 85 79 75 118 -12 48
-92 155 -216 287 -66 72 -129 146 -139 166 -20 39 -35 114 -45 229 -14 164
-35 217 -99 248 -94 46 -345 98 -586 121 -169 17 -178 19 -220 57 -33 30 -101
120 -120 159 -26 53 -98 160 -115 171 -17 11 -82 17 -256 24 -273 12 -386 24
-409 45 -22 20 -36 70 -50 175 -12 90 -26 148 -42 165 -5 6 -119 12 -276 16
-147 3 -274 9 -283 13 -23 10 -39 50 -39 96 0 32 7 48 35 79 52 57 172 136
261 172 70 28 86 31 154 27 96 -6 136 -26 225 -117 98 -100 102 -101 297 -101
l164 0 51 -32 c28 -18 82 -59 119 -91 78 -66 124 -83 175 -65 19 6 82 44 141
84 58 40 125 78 148 84 52 14 115 2 265 -52 147 -52 169 -51 285 7 167 84 213
89 505 55 94 -11 182 -20 196 -20 39 0 96 56 189 186 96 135 197 242 253 268
67 31 167 46 312 46 181 0 246 15 295 69 19 21 74 116 122 212 86 174 127 231
177 251 14 5 105 14 202 18 184 9 222 18 302 67 115 72 265 294 308 456 24 88
-13 170 -182 397 -62 84 -154 186 -278 310 -101 102 -197 205 -212 229 -45 70
-88 183 -109 288 -27 132 -45 177 -84 206 -34 26 -102 51 -169 62 -74 12 -170
128 -337 410 -117 198 -115 196 -211 236 -152 63 -305 238 -363 416 -36 108
-92 126 -365 117 -149 -5 -193 -4 -220 8 -22 9 -61 47 -110 108 -42 51 -93
107 -114 124 l-39 31 -216 5 c-149 4 -224 10 -240 19 -30 16 -52 68 -52 123 0
24 -8 59 -18 78 -31 64 -33 64 -487 70 l-410 5 -50 26 c-27 14 -108 45 -180
69 -190 63 -248 92 -308 152 -59 60 -77 104 -77 194 0 80 26 128 103 187 150
116 351 304 388 363 18 29 19 48 17 221 l-3 190 40 49 c21 27 42 51 46 54 19
15 49 79 49 106 0 60 -46 135 -100 164 -34 18 -119 40 -158 40 -41 0 -70 -15
-96 -49 -11 -14 -37 -43 -58 -65 -32 -32 -42 -37 -65 -31 -47 11 -83 45 -115
108 -41 83 -154 195 -233 232 -54 25 -70 28 -153 26 -120 -2 -235 -24 -309
-59 -53 -24 -69 -27 -179 -27 l-122 0 -58 55 c-84 79 -156 122 -212 127 -40 4
-56 -1 -110 -33z m-5976 -7146 c143 -147 599 -622 969 -1008 187 -195 427
-444 533 -553 105 -109 192 -204 192 -211 0 -24 -86 -95 -150 -125 -147 -68
-326 -81 -1117 -80 l-533 0 0 1034 c0 569 4 1035 8 1035 5 0 49 -42 98 -92z
m6214 -6458 c135 -140 304 -315 375 -389 72 -75 184 -192 250 -261 66 -69 174
-181 240 -250 127 -131 283 -293 525 -545 79 -82 168 -174 196 -203 45 -45 52
-57 45 -75 -5 -12 -35 -85 -66 -162 -66 -161 -167 -410 -231 -570 -25 -60 -49
-119 -54 -130 -4 -11 -32 -78 -61 -150 -96 -239 -142 -350 -148 -357 -4 -5
-35 58 -70 140 -35 81 -96 221 -136 312 -40 91 -103 235 -140 320 -37 85 -82
189 -100 230 -18 41 -64 147 -103 235 -38 88 -116 266 -172 395 -57 129 -126
289 -155 355 -29 66 -91 208 -138 315 -399 911 -435 998 -477 1153 -11 42 -20
80 -20 84 0 9 85 -77 440 -447z" fill="#D9251B"/>
<path d="M2340 17055 c0 -64 0 -65 28 -65 79 -1 264 -22 312 -35 87 -26 259
-104 332 -152 41 -27 124 -103 213 -195 l146 -151 -4 -1981 c-4 -2083 -2
-2011 -48 -2152 -16 -50 -31 -73 -77 -116 -111 -106 -246 -148 -477 -148 -150
0 -142 4 -141 -85 l1 -50 918 -3 917 -2 0 69 0 69 -182 5 c-193 5 -246 15
-348 66 -69 35 -137 107 -161 170 -53 143 -52 96 -56 1979 -2 958 -1 1742 3
1742 4 0 19 -15 34 -32 32 -39 290 -351 370 -448 30 -37 78 -94 105 -126 28
-33 66 -79 85 -103 19 -24 103 -125 186 -225 82 -99 184 -222 225 -272 41 -50
130 -158 199 -241 69 -82 163 -196 210 -253 47 -57 90 -108 95 -114 6 -6 28
-33 51 -61 22 -27 162 -196 310 -375 148 -179 321 -388 384 -465 63 -77 153
-185 200 -241 47 -56 110 -132 140 -169 30 -37 93 -113 140 -169 47 -56 126
-150 175 -211 49 -60 116 -142 150 -181 33 -39 138 -166 234 -282 l173 -212
69 0 69 0 2 2333 c3 2222 4 2336 22 2427 24 123 53 187 110 242 104 100 217
136 454 145 l162 6 0 64 0 63 -920 0 -920 0 0 -64 0 -63 168 -6 c243 -8 362
-45 451 -142 54 -58 77 -110 103 -233 21 -96 22 -112 25 -1597 2 -825 2 -1565
1 -1645 l-3 -145 -80 100 c-44 55 -82 102 -85 105 -3 3 -28 32 -55 65 -28 33
-52 62 -55 65 -3 3 -66 79 -140 170 -74 91 -171 208 -215 260 -44 53 -96 116
-117 140 -20 25 -128 156 -240 291 -111 135 -306 371 -433 525 -126 153 -275
332 -330 398 -55 66 -122 147 -149 180 -136 167 -203 247 -331 401 -77 93
-189 227 -248 299 -59 72 -145 176 -191 231 -129 157 -279 338 -302 365 -55
65 -135 162 -188 228 l-58 72 -709 0 -709 0 0 -65z" fill="#D9251B"/>
<path d="M9632 11293 l3 -68 180 -6 c188 -7 223 -14 328 -63 110 -53 169 -125
201 -250 41 -156 41 -154 41 -2201 0 -1806 -1 -1978 -17 -2071 -9 -55 -26
-126 -38 -157 -43 -115 -173 -217 -321 -252 -35 -8 -135 -18 -221 -21 l-158
-7 0 -64 0 -63 1130 0 1130 0 0 63 0 64 -157 7 c-87 3 -186 13 -220 21 -149
35 -274 128 -313 233 -61 161 -72 376 -68 1341 l3 744 273 -1 273 -1 58 -78
c32 -43 138 -188 236 -323 98 -135 186 -256 197 -270 10 -14 52 -70 92 -125
39 -55 128 -176 196 -270 68 -93 138 -190 156 -215 18 -25 87 -119 154 -210
66 -91 153 -210 193 -265 41 -55 141 -192 223 -305 82 -113 183 -251 224 -307
l75 -103 708 0 708 0 -3 67 -3 66 -130 23 c-279 48 -497 135 -652 259 -187
150 -359 356 -738 885 -65 91 -135 188 -155 215 -20 28 -56 78 -81 111 -24 34
-81 113 -127 175 -46 63 -140 193 -209 289 -70 96 -173 239 -230 318 -57 79
-106 149 -109 157 -4 9 4 16 23 21 276 64 556 183 738 314 91 66 243 220 303
308 96 141 161 293 198 462 23 104 26 409 6 505 -54 249 -163 446 -353 635
-280 277 -535 386 -1048 445 -249 29 -521 35 -1614 35 l-1088 0 3 -67z m2343
-248 c281 -46 505 -183 678 -414 205 -274 262 -726 136 -1071 -88 -239 -272
-450 -500 -572 -246 -132 -529 -190 -934 -192 l-220 -1 0 1095 0 1095 125 23
c296 54 537 66 715 37z" fill="#D9251B"/>
<path d="M3168 5986 c-170 -60 -353 -215 -431 -364 -53 -103 -64 -190 -31
-270 16 -42 85 -112 141 -144 l30 -17 121 109 c66 61 126 110 132 110 6 0 21
-7 34 -15 19 -13 25 -13 42 -1 18 13 16 17 -42 82 -72 81 -89 93 -106 76 -10
-10 -9 -19 6 -47 11 -19 17 -37 15 -38 -2 -2 -50 -45 -107 -95 -57 -51 -107
-92 -113 -92 -5 0 -28 17 -51 38 -36 34 -42 45 -45 93 -9 100 48 209 173 333
129 129 249 199 363 213 75 9 136 -24 167 -90 l23 -50 -59 -66 c-54 -60 -61
-80 -28 -81 13 0 158 135 158 147 0 26 -54 119 -82 142 -70 57 -195 67 -310
27z" fill="#D9251B"/>
<path d="M3605 5602 c-171 -51 -379 -222 -477 -392 -87 -150 -71 -302 37 -366
42 -24 53 -26 124 -22 123 7 248 75 381 208 195 195 271 409 183 518 -16 20
-42 43 -57 50 -44 22 -125 24 -191 4z m182 -77 c34 -34 36 -38 30 -93 -18
-199 -318 -519 -521 -558 -74 -13 -138 31 -151 104 -32 192 340 580 559 582
42 0 52 -4 83 -35z" fill="#D9251B"/>
<path d="M4020 5305 c-10 -12 -9 -20 4 -40 10 -14 14 -34 11 -43 -3 -9 -129
-143 -280 -297 l-274 -280 -36 19 c-34 19 -37 19 -53 2 -16 -16 -12 -22 78
-110 110 -107 162 -136 242 -136 107 0 207 56 334 185 191 195 262 376 199
509 -17 35 -185 206 -202 206 -6 0 -16 -7 -23 -15z m122 -162 c86 -88 76 -183
-37 -353 -67 -100 -216 -249 -285 -283 -94 -46 -185 -29 -261 49 l-33 34 80
82 c44 46 171 179 283 296 112 116 207 212 211 212 3 0 22 -17 42 -37z" fill="#D9251B"/>
<path d="M19567 5006 c-38 -14 -78 -45 -176 -133 -50 -45 -53 -50 -41 -70 13
-20 15 -20 47 -5 l33 16 53 -59 c159 -179 477 -548 477 -555 0 -4 -10 -20 -21
-34 -22 -28 -22 -28 -2 -47 20 -20 20 -20 120 70 123 111 148 154 147 256 -1
123 -75 248 -244 408 -144 137 -286 193 -393 153z m155 -76 c131 -49 367 -290
413 -421 19 -52 19 -90 1 -134 -18 -42 -95 -127 -112 -123 -7 2 -39 33 -71 69
-32 37 -137 155 -233 264 -96 109 -190 216 -209 237 l-34 39 28 29 c59 62 126
74 217 40z" fill="#D9251B"/>
<path d="M4362 4820 c-58 -73 -100 -135 -96 -141 7 -11 244 217 244 235 0 9
-30 35 -40 35 -3 0 -51 -58 -108 -129z" fill="#D9251B"/>
<path d="M4518 4755 c-63 -33 -140 -112 -172 -176 -30 -60 -34 -132 -15 -248
10 -59 9 -76 -6 -122 -34 -101 -137 -182 -210 -163 -25 6 -85 66 -85 85 0 6
21 40 46 76 41 59 50 93 25 93 -18 0 -141 -154 -141 -176 0 -57 105 -144 175
-144 120 0 292 166 310 299 3 25 -1 91 -9 147 -21 134 -4 190 75 258 54 46
101 56 137 29 48 -36 50 -64 10 -120 -55 -76 -63 -94 -47 -104 15 -9 22 -1
105 104 54 69 54 90 -5 149 -35 35 -43 38 -92 38 -37 -1 -69 -9 -101 -25z" fill="#D9251B"/>
<path d="M19097 4623 c-75 -62 -77 -66 -62 -84 16 -16 19 -17 41 -3 13 9 28
14 33 12 9 -3 82 -91 399 -482 138 -169 127 -150 102 -183 -21 -29 -19 -63 4
-63 6 0 22 10 36 23 14 12 57 48 95 79 147 118 164 133 165 144 0 14 -138 174
-150 174 -24 0 -17 -25 26 -90 46 -69 47 -71 28 -88 -39 -35 -122 -102 -127
-102 -5 0 -258 306 -496 600 -29 35 -29 35 -10 59 22 27 24 44 6 59 -10 8 -32
-5 -90 -55z" fill="#D9251B"/>
<path d="M20341 4641 c-21 -13 -5 -58 32 -92 70 -65 123 -2 56 67 -33 34 -61
42 -88 25z" fill="#D9251B"/>
<path d="M4964 4479 c-17 -18 -16 -20 6 -44 27 -29 31 -22 -90 -177 -45 -57
-149 -190 -231 -296 -83 -106 -157 -196 -165 -199 -8 -3 -25 2 -38 10 -22 15
-25 15 -40 -2 -15 -16 -14 -19 12 -43 15 -14 53 -44 85 -68 53 -39 59 -42 74
-27 14 14 14 18 -6 43 -11 14 -21 31 -21 36 0 5 33 52 73 103 39 51 150 195
246 320 126 164 179 225 190 221 57 -18 59 -18 70 2 9 17 1 27 -69 80 -77 59
-79 60 -96 41z" fill="#D9251B"/>
<path d="M18851 4408 c-32 -9 -194 -119 -207 -140 -4 -6 0 -16 8 -24 11 -11
20 -12 46 -2 20 8 35 9 40 3 5 -6 54 -71 109 -145 54 -74 159 -215 232 -314
73 -98 135 -184 137 -190 3 -7 -4 -21 -16 -31 -23 -21 -25 -38 -6 -54 10 -8
32 4 100 54 47 36 86 69 86 74 0 5 -6 14 -14 20 -11 9 -22 8 -50 -6 -22 -10
-39 -13 -44 -7 -5 5 -55 71 -111 146 -108 144 -117 168 -61 168 55 0 151 -59
337 -208 47 -39 59 -37 116 11 34 29 36 34 24 51 -12 17 -17 17 -49 6 -36 -13
-37 -13 -109 42 -113 84 -208 146 -245 158 -31 11 -32 13 -22 41 25 73 -10
176 -90 261 -72 77 -144 106 -211 86z m107 -95 c73 -50 141 -154 142 -218 0
-22 -11 -41 -36 -68 -20 -20 -40 -37 -44 -37 -8 0 -230 293 -230 304 0 14 67
46 96 46 17 0 49 -12 72 -27z" fill="#D9251B"/>
<path d="M5158 4325 c-9 -20 -8 -28 5 -43 10 -10 17 -24 17 -31 0 -7 -44 -72
-98 -144 -54 -73 -145 -195 -202 -272 -183 -248 -173 -237 -195 -230 -11 4
-27 9 -37 12 -10 3 -20 -3 -27 -15 -10 -18 -3 -26 56 -73 62 -49 67 -51 80
-34 17 24 17 40 -2 55 -8 7 -15 18 -15 24 0 6 40 64 88 128 48 64 140 189 206
278 65 88 120 159 122 157 2 -2 -23 -114 -55 -248 -60 -247 -131 -559 -131
-578 0 -6 4 -11 9 -11 8 0 162 216 301 422 57 84 203 294 210 301 4 4 19 2 35
-5 24 -11 29 -10 41 7 8 10 14 22 14 25 0 6 -101 78 -122 88 -4 2 -12 -6 -18
-17 -8 -16 -7 -26 6 -45 9 -14 12 -31 8 -38 -22 -38 -339 -487 -341 -484 -6 5
25 138 97 429 38 154 67 283 65 287 -3 5 -28 24 -55 44 l-50 36 -12 -25z" fill="#D9251B"/>
<path d="M18415 4122 c-58 -25 -63 -29 -85 -72 -40 -78 -22 -226 44 -366 112
-238 313 -424 458 -424 81 0 139 32 172 97 21 43 22 176 0 240 -70 207 -252
431 -412 506 -79 37 -126 42 -177 19z m142 -82 c206 -103 447 -473 409 -626
-12 -46 -62 -84 -110 -84 -126 0 -316 175 -426 393 -70 139 -86 236 -50 295
36 59 89 66 177 22z" fill="#D9251B"/>
<path d="M5755 3909 c-5 -14 0 -28 15 -44 l23 -24 -93 -143 c-51 -79 -120
-186 -154 -238 -34 -52 -88 -136 -121 -186 -33 -51 -65 -101 -71 -111 -10 -16
-15 -17 -44 -6 -35 13 -60 4 -60 -21 1 -6 40 -35 87 -65 81 -50 87 -52 100
-35 11 15 10 21 -13 45 l-26 27 59 91 c32 50 80 126 106 169 27 42 51 79 53
81 6 7 204 -124 204 -135 0 -6 -10 -26 -23 -45 -12 -19 -58 -94 -102 -167 -59
-98 -84 -130 -95 -126 -38 16 -59 15 -68 -3 -9 -16 0 -25 76 -71 47 -29 92
-50 99 -48 20 8 16 44 -7 58 -11 7 -20 19 -20 26 0 7 86 155 191 330 106 174
198 330 207 345 13 26 18 28 49 22 33 -6 63 6 63 25 0 5 -36 29 -81 55 -74 44
-82 47 -97 32 -15 -15 -14 -18 6 -40 12 -13 22 -27 22 -31 0 -12 -174 -296
-182 -296 -4 0 -50 28 -103 62 -69 45 -94 66 -90 77 4 9 45 76 92 149 l86 132
34 -6 c32 -6 52 4 53 27 0 4 -107 75 -157 103 -7 4 -14 -2 -18 -15z" fill="#D9251B"/>
<path d="M18093 3890 c-35 -22 -63 -43 -63 -47 1 -23 19 -35 47 -29 25 6 31 3
42 -21 25 -54 221 -548 246 -618 7 -19 -38 25 -130 126 -22 25 -79 87 -126
139 -47 52 -116 128 -153 169 l-66 75 20 21 c22 23 24 33 11 54 -7 11 -25 4
-90 -34 -45 -26 -81 -50 -81 -52 0 -2 5 -13 10 -23 9 -16 14 -17 42 -8 29 10
33 9 57 -20 14 -16 48 -55 74 -86 44 -49 57 -78 128 -272 43 -119 79 -222 79
-228 0 -12 -79 74 -302 328 -166 190 -166 191 -147 212 21 22 23 32 10 52 -6
11 -26 3 -90 -33 -44 -26 -81 -51 -81 -55 0 -18 31 -31 58 -26 27 6 37 -3 169
-156 77 -90 154 -177 169 -195 16 -17 89 -99 163 -182 73 -83 137 -151 142
-151 16 0 10 25 -37 156 -112 317 -144 408 -141 410 2 3 134 -139 323 -348 66
-73 94 -92 94 -65 0 14 -101 281 -235 619 -98 247 -99 252 -61 279 9 7 -1 49
-12 49 -4 0 -35 -18 -69 -40z" fill="#D9251B"/>
<path d="M6223 3614 c-3 -8 4 -25 16 -38 11 -12 21 -25 21 -28 0 -3 -32 -61
-72 -129 -101 -176 -122 -213 -236 -409 -80 -138 -105 -174 -119 -171 -40 10
-68 6 -71 -10 -2 -11 21 -31 75 -62 104 -61 110 -63 118 -38 5 15 -1 27 -21
44 l-27 24 183 319 c101 175 194 338 207 361 22 38 26 41 49 33 35 -14 42 -13
54 9 9 18 1 25 -71 65 -90 51 -97 53 -106 30z" fill="#D9251B"/>
<path d="M6479 3442 c-97 -50 -189 -202 -189 -310 0 -26 13 -85 30 -132 40
-115 40 -170 -3 -251 -52 -101 -122 -133 -194 -90 -45 28 -48 49 -13 126 34
77 37 98 13 93 -17 -3 -112 -160 -113 -185 0 -18 58 -82 91 -99 101 -52 238
29 312 184 46 99 47 163 3 294 -20 59 -36 113 -36 121 0 41 34 119 70 160 47
53 88 67 125 43 46 -30 48 -49 15 -128 -29 -68 -32 -98 -11 -98 5 0 32 45 61
101 44 86 50 103 39 117 -61 80 -121 96 -200 54z" fill="#D9251B"/>
<path d="M17175 3355 c-77 -41 -144 -76 -149 -78 -5 -1 -6 -13 -2 -24 6 -18
14 -21 47 -20 l40 2 184 -361 184 -362 -25 -23 c-24 -22 -32 -53 -16 -63 5 -3
22 2 38 10 16 9 79 41 139 72 61 31 124 64 142 75 l32 18 -52 99 c-48 92 -67
114 -81 92 -3 -5 8 -42 25 -82 17 -40 27 -76 22 -80 -4 -4 -43 -26 -85 -49
l-77 -40 -34 62 c-41 74 -147 284 -147 290 0 6 78 47 89 47 5 0 23 -22 41 -50
18 -27 36 -50 41 -50 12 0 12 33 0 46 -12 12 -42 66 -92 166 -27 54 -44 77
-51 70 -6 -6 -2 -26 12 -60 12 -28 19 -56 15 -62 -3 -5 -24 -19 -45 -30 -29
-15 -40 -17 -48 -7 -15 19 -152 295 -152 306 0 9 126 81 141 81 4 0 26 -29 49
-65 39 -59 57 -75 72 -60 7 7 -101 205 -110 205 -4 -1 -70 -34 -147 -75z" fill="#D9251B"/>
<path d="M6910 3240 c-9 -16 -6 -22 15 -36 14 -9 25 -21 25 -27 0 -5 -61 -134
-136 -286 -74 -152 -154 -315 -177 -364 l-42 -87 -39 6 c-36 6 -55 -4 -56 -28
0 -4 41 -28 91 -54 72 -36 94 -43 100 -32 14 22 10 35 -16 55 l-26 18 85 172
c46 95 86 178 88 185 6 17 218 -81 218 -102 0 -8 -36 -91 -80 -185 l-79 -170
-39 3 c-30 1 -41 -2 -46 -15 -9 -22 -6 -24 96 -71 87 -40 88 -40 99 -20 12 22
5 32 -40 58 -15 8 -7 28 220 524 l106 231 39 0 c34 0 39 3 39 23 0 19 -14 29
-79 59 -76 34 -80 35 -93 17 -12 -17 -11 -21 12 -37 14 -10 25 -23 25 -28 0
-8 -138 -310 -144 -317 -4 -3 -216 97 -216 102 0 2 34 73 75 158 l75 153 37 0
c30 0 39 4 41 20 2 16 -13 27 -76 58 -43 20 -81 37 -85 37 -3 0 -11 -9 -17
-20z" fill="#D9251B"/>
<path d="M16873 3203 c-40 -20 -73 -41 -73 -47 1 -27 16 -36 47 -27 l31 9 76
-158 c42 -87 76 -160 76 -163 0 -11 -212 -99 -219 -91 -5 5 -39 76 -75 158
l-67 149 25 26 c20 22 23 29 12 43 -11 15 -19 13 -94 -20 -67 -30 -82 -41 -80
-57 2 -16 11 -20 42 -20 l39 0 90 -200 c49 -110 124 -279 167 -375 l78 -175
-29 -20 c-21 -15 -27 -25 -22 -40 3 -11 7 -21 8 -23 1 -1 45 16 97 39 80 34
95 45 91 60 -7 27 -15 30 -52 19 -35 -10 -19 -38 -137 225 l-64 140 98 47 c53
26 104 47 112 47 10 1 43 -56 95 -165 44 -92 81 -175 83 -185 2 -10 -6 -24
-17 -31 -24 -15 -28 -46 -7 -54 10 -4 165 64 184 81 2 2 -1 12 -7 23 -10 18
-15 19 -46 9 -19 -6 -36 -8 -38 -6 -5 6 -186 377 -278 568 l-83 173 24 22 c28
23 28 56 2 55 -9 0 -50 -16 -89 -36z" fill="#D9251B"/>
<path d="M7405 3009 c-7 -21 -4 -25 34 -48 18 -11 26 13 -123 -331 -59 -135
-126 -289 -148 -342 l-42 -98 -40 3 c-34 2 -41 -1 -44 -18 -2 -17 17 -28 120
-72 68 -28 147 -61 176 -72 l53 -21 9 26 c6 15 24 60 41 100 29 69 33 114 9
99 -6 -4 -26 -38 -45 -76 -20 -38 -38 -69 -40 -69 -9 0 -160 63 -168 70 -8 7
24 92 105 277 l40 92 42 -16 c59 -23 60 -26 42 -79 -18 -54 -20 -74 -7 -74 9
0 105 218 117 265 11 43 -14 28 -41 -25 -14 -27 -29 -50 -33 -50 -14 0 -92 35
-92 42 0 3 29 74 65 157 36 83 65 156 65 161 0 6 4 10 9 10 7 0 151 -58 158
-64 1 -1 -9 -37 -22 -81 -16 -52 -21 -83 -15 -89 6 -6 13 -6 19 0 10 11 81
190 81 204 0 6 -15 17 -32 25 -84 37 -272 115 -279 115 -4 0 -11 -10 -14 -21z" fill="#D9251B"/>
<path d="M16305 2949 c-88 -38 -166 -69 -172 -69 -19 0 -16 -17 23 -120 41
-107 44 -112 61 -102 9 6 6 28 -11 87 l-24 80 47 22 c25 12 51 22 57 22 10 1
63 -122 271 -623 38 -93 53 -141 45 -144 -6 -2 -22 -12 -34 -22 -17 -14 -20
-22 -13 -38 10 -20 12 -19 105 19 108 45 113 49 104 73 -5 14 -14 16 -48 11
-39 -6 -43 -5 -55 22 -16 33 -154 362 -216 513 -24 58 -53 127 -64 153 -12 27
-21 54 -21 60 0 7 24 21 54 33 l53 20 39 -73 c36 -67 64 -93 64 -59 0 26 -82
206 -94 205 -6 -1 -83 -32 -171 -70z" fill="#D9251B"/>
<path d="M7944 2703 c-124 -198 -166 -263 -347 -540 l-86 -132 -38 2 c-29 2
-38 -2 -41 -17 -5 -23 6 -30 87 -57 52 -18 65 -19 72 -8 15 23 10 35 -17 48
-14 6 -24 17 -21 24 12 33 151 237 161 237 6 0 43 -11 82 -26 l70 -25 -20
-137 c-12 -75 -24 -142 -28 -148 -4 -6 -20 -9 -37 -6 -23 3 -30 0 -36 -18 -4
-12 -5 -23 -3 -24 13 -11 182 -65 189 -61 18 12 9 46 -16 57 -15 7 -25 19 -25
32 0 24 78 524 115 734 14 79 25 149 25 157 0 33 -21 10 -86 -92z m-36 -258
c-16 -93 -31 -172 -33 -174 -8 -7 -125 41 -125 52 0 8 29 56 157 260 14 22 26
37 27 35 2 -1 -10 -79 -26 -173z" fill="#D9251B"/>
<path d="M15815 2759 c-44 -17 -80 -31 -82 -32 -1 -2 0 -13 4 -25 4 -19 11
-22 40 -20 34 3 36 1 54 -47 63 -173 100 -278 97 -280 -10 -7 -220 -77 -223
-74 -2 2 -28 77 -59 167 l-55 162 25 16 c23 16 32 48 16 58 -7 4 -162 -40
-180 -50 -2 -2 -1 -12 3 -24 6 -17 13 -21 42 -18 l35 3 129 -390 c71 -215 129
-394 129 -398 0 -4 -13 -13 -30 -18 -31 -11 -36 -24 -20 -49 8 -12 21 -11 92
13 106 35 113 39 100 64 -8 14 -19 18 -44 15 l-33 -3 -64 190 c-35 105 -62
194 -59 196 8 8 218 78 222 74 1 -2 33 -87 70 -189 l68 -185 -26 -20 c-26 -21
-34 -49 -17 -60 6 -3 50 9 98 27 70 26 88 37 88 53 0 17 -7 20 -39 20 -24 0
-42 6 -47 15 -5 8 -51 132 -103 275 -52 143 -113 309 -135 369 -23 60 -41 112
-41 116 0 4 12 12 26 18 18 9 24 19 22 34 -2 12 -7 23 -13 24 -5 2 -46 -11
-90 -27z" fill="#D9251B"/>
<path d="M8246 2678 c-3 -13 -2 -24 3 -26 4 -1 16 -9 26 -16 17 -12 18 -20 7
-97 -15 -102 -68 -500 -87 -659 -25 -193 -19 -217 31 -132 21 36 277 497 408
735 12 21 22 27 51 27 30 0 35 3 35 23 0 21 -9 27 -72 45 -40 11 -73 20 -74
19 -8 -10 -13 -47 -7 -47 5 0 18 -6 28 -14 17 -12 15 -19 -45 -132 -58 -110
-250 -460 -272 -494 -6 -10 -7 12 -3 60 7 84 74 609 80 626 2 7 15 9 30 6 27
-5 45 9 45 34 0 9 -147 64 -171 64 -4 0 -9 -10 -13 -22z" fill="#D9251B"/>
<path d="M15220 2563 c-102 -31 -186 -57 -188 -58 -2 -2 30 -124 54 -207 5
-18 34 -26 34 -10 0 9 -18 115 -25 148 -4 18 3 23 52 37 31 9 58 15 60 13 8
-8 233 -766 233 -783 0 -5 -15 -17 -34 -26 -27 -12 -33 -20 -29 -36 3 -12 10
-21 16 -21 13 0 143 38 180 52 43 17 31 42 -23 48 l-44 5 -49 160 c-26 88 -80
262 -118 387 -38 124 -69 228 -69 231 0 6 88 37 106 37 6 0 25 -32 40 -71 27
-65 46 -90 60 -76 5 5 -64 229 -69 226 -1 0 -85 -26 -187 -56z" fill="#D9251B"/>
<path d="M8747 2520 c-4 -15 2 -24 25 -36 23 -12 29 -20 24 -37 -3 -12 -55
-191 -115 -397 l-109 -375 -38 0 c-35 0 -39 -3 -39 -25 0 -24 8 -27 170 -72
94 -26 175 -47 181 -47 6 -1 23 46 38 104 30 121 31 125 12 125 -12 0 -32 -40
-65 -131 l-9 -26 -88 23 c-47 13 -89 26 -92 29 -6 5 7 54 65 253 25 86 40 122
51 122 32 0 93 -24 88 -35 -2 -7 -7 -37 -11 -68 -11 -85 9 -70 35 26 12 45 31
112 41 148 23 79 23 79 6 79 -7 0 -21 -25 -31 -56 -17 -55 -18 -55 -49 -48
-54 11 -77 23 -72 36 2 7 17 60 34 118 16 58 36 130 45 161 l16 57 81 -22 81
-21 -6 -50 c-3 -27 -9 -67 -12 -87 -5 -30 -3 -38 8 -38 11 0 23 29 42 95 14
52 26 103 26 112 0 15 -30 26 -158 61 -86 24 -160 43 -163 42 -4 0 -9 -9 -12
-20z" fill="#D9251B"/>
<path d="M14890 2468 c-84 -22 -93 -27 -84 -51 4 -11 18 -17 39 -17 23 0 35
-5 39 -17 3 -10 28 -103 56 -208 28 -104 73 -273 100 -375 28 -102 50 -191 50
-197 0 -6 -13 -16 -30 -22 -30 -10 -37 -25 -22 -48 6 -10 31 -6 105 14 87 23
97 28 97 49 0 20 -6 23 -42 26 l-43 3 -52 195 c-29 107 -67 247 -84 310 -17
63 -42 153 -55 199 -13 46 -24 84 -24 86 0 1 14 8 30 15 31 13 34 18 24 44 -7
19 -10 19 -104 -6z" fill="#D9251B"/>
<path d="M9136 2418 c-9 -34 -8 -35 24 -48 21 -9 29 -18 26 -29 -3 -9 -44
-171 -91 -361 -47 -190 -91 -362 -96 -383 -10 -36 -11 -37 -44 -31 -28 5 -35
3 -35 -9 0 -8 -3 -22 -6 -30 -4 -11 12 -19 65 -32 39 -9 78 -15 86 -11 24 9
18 42 -10 54 -14 6 -25 16 -25 22 0 11 159 657 167 680 3 8 25 -118 48 -280
46 -318 84 -552 91 -559 12 -13 26 38 83 299 112 520 126 575 140 572 27 -6
51 10 51 33 0 21 -8 25 -67 39 -52 11 -69 12 -75 3 -15 -23 -8 -44 18 -55 17
-8 24 -18 20 -30 -3 -9 -16 -69 -30 -132 -63 -288 -98 -445 -101 -448 -7 -7
-43 218 -81 515 l-28 212 -46 11 c-25 6 -52 13 -61 16 -11 3 -19 -3 -23 -18z" fill="#D9251B"/>
<path d="M14676 2414 c-58 -16 -60 -17 -51 -43 4 -15 15 -21 34 -21 28 0 29
-2 35 -67 3 -38 10 -158 16 -268 5 -110 12 -240 16 -290 3 -49 3 -87 -1 -83
-8 7 -156 349 -231 532 -28 71 -44 121 -38 123 30 10 46 31 40 50 -6 18 -11
20 -39 13 -18 -5 -58 -14 -90 -20 -51 -10 -58 -14 -55 -33 2 -17 11 -23 36
-25 28 -3 36 -10 49 -40 8 -20 27 -62 41 -92 23 -49 27 -72 33 -220 10 -232
10 -346 1 -335 -16 19 -262 619 -262 638 0 8 11 19 25 25 27 13 33 39 11 48
-13 5 -116 -10 -159 -22 -12 -4 -17 -13 -15 -27 2 -16 12 -23 37 -27 33 -5 34
-6 101 -175 176 -441 280 -685 292 -685 8 0 9 96 6 305 -3 168 -4 305 -3 303
2 -3 163 -371 217 -500 12 -27 27 -48 35 -48 15 0 14 17 -8 455 -5 105 -12
256 -16 337 l-6 147 27 7 c20 5 26 12 24 28 -4 26 -34 29 -102 10z" fill="#D9251B"/>
<path d="M10010 2183 c-18 -49 -43 -113 -55 -143 -13 -30 -44 -107 -69 -170
-24 -63 -70 -176 -101 -250 -31 -74 -64 -154 -73 -177 -15 -40 -19 -43 -54
-43 -33 0 -38 -3 -38 -24 0 -22 6 -25 63 -35 92 -16 107 -15 107 9 0 12 -10
25 -25 32 -14 6 -25 17 -25 23 0 11 98 255 105 264 5 4 149 -21 157 -28 4 -3
10 -70 14 -149 l6 -142 -23 0 c-29 0 -43 -9 -52 -32 -7 -20 1 -23 101 -39 82
-12 102 -8 102 20 0 13 -9 21 -30 26 -16 4 -30 10 -30 13 0 4 -5 118 -10 253
-5 135 -10 333 -11 440 -1 193 -4 239 -19 239 -4 0 -22 -39 -40 -87z m-1 -357
l1 -118 -57 7 c-74 9 -85 14 -78 34 3 9 32 82 63 162 l57 145 6 -55 c4 -31 7
-109 8 -175z" fill="#D9251B"/>
<path d="M13650 2211 c-190 -31 -170 -10 -150 -163 9 -63 16 -88 26 -88 11 0
14 19 14 84 l0 84 31 6 c17 3 44 6 60 6 26 0 28 -4 34 -47 4 -27 13 -86 20
-133 7 -47 20 -134 29 -195 9 -60 28 -182 41 -269 13 -88 22 -163 19 -167 -2
-4 -18 -10 -34 -14 -23 -5 -30 -12 -30 -31 0 -28 10 -29 109 -13 112 17 113
18 109 42 -2 18 -10 23 -44 25 l-40 3 -63 405 c-35 222 -62 406 -60 408 2 2
29 7 60 11 l55 7 11 -39 c7 -21 17 -57 23 -80 6 -26 17 -43 25 -43 18 0 18 10
-4 130 -17 94 -17 95 -46 97 -17 1 -104 -11 -195 -26z" fill="#D9251B"/>
<path d="M10317 2179 c-5 -17 1 -24 24 -32 21 -8 29 -18 29 -35 0 -25 -13
-121 -76 -555 -19 -131 -34 -240 -34 -242 0 -3 -15 -5 -34 -5 -26 0 -36 -5
-41 -21 -4 -11 -4 -23 -1 -26 5 -5 80 -16 323 -47 l42 -5 6 42 c3 23 9 75 14
115 6 63 5 72 -9 72 -13 0 -21 -19 -35 -81 l-17 -80 -36 5 c-21 3 -61 8 -89
12 -30 3 -53 11 -53 17 -1 7 23 191 52 409 l52 397 38 6 c31 6 38 11 38 29 0
21 -7 24 -82 34 -107 15 -105 16 -111 -9z" fill="#D9251B"/>
<path d="M13332 2168 c-67 -8 -82 -13 -78 -25 3 -8 6 -19 6 -24 0 -5 13 -9 29
-9 22 0 30 -6 34 -22 11 -48 41 -328 35 -333 -3 -3 -55 -12 -116 -19 l-111
-12 -5 35 c-3 20 -10 83 -16 141 -6 58 -13 121 -16 140 -4 32 -2 36 26 47 20
8 30 18 30 32 0 24 -11 25 -122 14 -62 -5 -68 -8 -68 -28 0 -18 7 -24 35 -29
42 -8 35 26 75 -401 17 -181 33 -353 36 -381 l6 -51 -36 -7 c-30 -6 -36 -11
-36 -33 l0 -26 91 8 c111 8 121 12 117 39 -2 16 -12 22 -38 26 l-35 5 -17 160
c-9 88 -17 179 -17 201 -1 48 0 49 146 60 l89 7 17 -159 c10 -88 21 -178 24
-202 5 -40 4 -43 -26 -53 -24 -8 -31 -17 -31 -36 0 -24 3 -25 38 -20 20 3 65
9 100 13 57 6 62 9 62 30 0 14 -6 25 -15 25 -8 1 -25 2 -37 3 -21 1 -23 12
-69 381 -26 209 -51 394 -54 412 -5 28 -3 33 19 39 14 3 30 12 36 19 12 15 3
46 -14 44 -6 -1 -48 -6 -94 -11z" fill="#D9251B"/>
<path d="M10700 2127 c0 -20 6 -27 30 -32 19 -4 30 -13 30 -24 0 -10 -13 -143
-30 -297 -16 -153 -35 -332 -42 -396 l-11 -117 -39 -6 c-31 -6 -38 -11 -38
-29 0 -21 6 -23 138 -35 75 -6 158 -14 184 -17 l46 -6 7 79 c3 43 8 95 11 116
5 32 3 37 -13 37 -16 0 -22 -13 -33 -81 l-14 -81 -90 7 c-50 4 -92 8 -93 9 -4
3 77 798 82 813 2 6 19 13 37 15 25 2 34 8 36 25 4 26 -6 29 -115 38 l-83 7 0
-25z" fill="#D9251B"/>
<path d="M11116 2122 c-7 -12 -10 -322 -2 -329 12 -12 15 3 31 137 8 74 18
150 21 168 4 29 3 32 -20 32 -14 0 -27 -4 -30 -8z" fill="#D9251B"/>
<path d="M12647 2099 c-238 -158 -208 -814 44 -944 40 -21 145 -17 203 8 l39
17 -9 128 c-13 210 -13 215 16 222 18 4 25 13 25 30 0 25 -1 25 -80 22 -104
-4 -117 -8 -113 -35 2 -17 12 -23 38 -27 l35 -5 7 -75 c3 -41 8 -108 10 -148
l4 -72 -37 -12 c-115 -34 -208 71 -256 287 -21 92 -23 322 -4 390 40 142 111
202 206 175 l43 -12 13 -84 c10 -71 15 -84 31 -84 17 0 18 6 13 63 -17 178
-12 163 -54 176 -69 20 -123 14 -174 -20z" fill="#D9251B"/>
<path d="M11327 2093 c-57 -44 -91 -128 -95 -240 -5 -123 11 -166 101 -260 84
-90 106 -137 107 -222 0 -116 -57 -191 -136 -176 -55 10 -64 26 -64 121 0 77
-2 84 -20 84 -16 0 -20 -7 -20 -32 0 -18 -3 -70 -7 -115 l-6 -83 44 -20 c90
-40 174 -19 226 59 36 53 48 108 48 221 -1 128 -15 161 -116 265 -75 78 -99
123 -99 187 0 120 65 202 133 167 33 -18 37 -28 37 -101 0 -48 5 -71 16 -83 9
-9 18 -15 19 -13 1 2 6 54 10 116 l7 112 -44 20 c-60 27 -98 25 -141 -7z" fill="#D9251B"/>
<path d="M11760 2061 c0 -28 3 -31 30 -31 l30 0 0 -343 c0 -189 -3 -378 -6
-420 -6 -69 -9 -77 -28 -77 -31 0 -48 -15 -44 -36 3 -17 15 -19 111 -22 l107
-3 0 25 c0 21 -6 25 -40 31 l-40 7 0 189 0 189 24 0 c49 0 81 -67 140 -293 20
-74 36 -138 36 -141 0 -3 29 -6 65 -6 62 0 65 1 65 25 0 19 -7 26 -32 33 -33
8 -34 10 -79 164 -26 86 -57 175 -70 197 l-23 42 30 24 c99 77 105 333 12 424
-35 34 -49 37 -190 47 l-98 6 0 -31z m226 -62 c37 -31 56 -91 57 -178 1 -135
-39 -191 -134 -191 l-29 0 0 196 0 197 45 -5 c25 -3 52 -11 61 -19z" fill="#D9251B"/>
<path d="M12222 2063 c2 -22 9 -29 31 -31 17 -2 27 -10 28 -20 0 -9 2 -28 4
-42 3 -24 20 -651 20 -735 0 -36 -3 -40 -30 -45 -24 -4 -31 -11 -33 -34 -3
-26 -1 -28 20 -23 13 4 60 7 106 7 80 0 83 1 80 22 -2 16 -13 25 -39 31 l-36
8 -6 197 c-4 108 -10 295 -13 414 l-7 218 31 6 c25 5 32 12 32 30 0 24 -2 24
-96 24 l-95 0 3 -27z" fill="#D9251B"/>
<path d="M9506 1476 c-19 -41 -21 -86 -3 -110 28 -38 77 22 77 93 0 58 -49 69
-74 17z" fill="#D9251B"/>
</g>
</svg>
